<svg width="24" height="24" viewBox="0 0 24 24" fill="none" xmlns="http://www.w3.org/2000/svg">
<path fill-rule="evenodd" clip-rule="evenodd" d="M11 10C11 8.89543 11.8954 8 13 8H19C20.1046 8 21 8.89543 21 10V19C21 20.1046 20.1046 21 19 21H13C11.8954 21 11 20.1046 11 19V10ZM19 10L13 10V19H19V10Z" fill="#001A41"/>
<circle cx="16" cy="17" r="1" fill="#001A41"/>
<path d="M8 6.5C8 6.22386 8.22386 6 8.5 6H12.5C12.7761 6 13 6.22386 13 6.5C13 6.77614 12.7761 7 12.5 7H8.5C8.22386 7 8 6.77614 8 6.5Z" fill="#001A41"/>
<path fill-rule="evenodd" clip-rule="evenodd" d="M5 3C3.89543 3 3 3.89543 3 5V17.4435C3.03613 17.4762 3.07567 17.5072 3.11946 17.5371C3.41333 17.7378 3.94343 17.9083 5 17.9726V5H16V7C16.5 7 18 6.41355 18 5.5V5C18 3.89543 17.1046 3 16 3H5ZM5.96075 19C5.97379 19 5.98686 19 5.99998 19L8 19C9.40754 19 10 20 10 21H5C3.89543 21 3 20.1046 3 19V18.6018C3.32987 18.7404 4.5 19 5 19H5.96075Z" fill="#001A41"/>
</svg>
