<svg width="24" height="24" viewBox="0 0 24 24" fill="none" xmlns="http://www.w3.org/2000/svg">
<path fill-rule="evenodd" clip-rule="evenodd" d="M16.5201 8.00001C16.2287 6.82148 15.8113 5.71321 15.2857 4.70373C16.3134 5.16726 17.2256 5.84153 17.9673 6.67146C18.3313 7.07896 18.6543 7.52399 18.9297 8.00001H16.5201ZM19.7479 10C19.8467 10.3836 19.9177 10.7784 19.9587 11.182C19.986 11.451 20 11.7239 20 12C20 12.3667 19.9753 12.7277 19.9276 13.0813C19.8854 13.3936 19.8251 13.7002 19.7479 14H16.8829C16.9601 13.3469 17 12.6789 17 12C17 11.3211 16.9601 10.6531 16.8829 10H19.7479ZM18.9297 16C18.6949 16.4059 18.4255 16.7892 18.1255 17.146C17.357 18.0598 16.3878 18.7992 15.2858 19.2963C15.8113 18.2868 16.2287 17.1785 16.5201 16H18.9297ZM14.4507 16C13.9635 17.7033 13 20 12 20C11 20 10.0366 17.7033 9.54929 16H14.4507ZM8.71427 4.70374C7.66352 5.17766 6.73352 5.87188 5.98312 6.72755C5.63926 7.11969 5.3331 7.54573 5.07033 8.00001H7.47995C7.77129 6.82148 8.18875 5.71321 8.71427 4.70374ZM4.00002 11.9892C4.00033 11.7512 4.01103 11.5157 4.0317 11.2831C4.07068 10.8443 4.14511 10.4156 4.25208 10H7.1171C7.03991 10.6531 7.00001 11.3211 7.00001 12C7.00001 12.6789 7.03991 13.3469 7.11711 14H4.50001C4.49505 14 4.4901 14 4.48515 14H4.25209L4.25152 13.9978C3.40531 13.9827 2.71828 13.8896 2.15031 13.7369C2.97253 18.4318 7.06957 22 12 22C17.5203 22 21.9959 17.5269 22 12.0075L22 12C22 11.5274 21.9672 11.0624 21.9038 10.6072C21.6362 8.68668 20.8231 6.9408 19.6261 5.5311C17.7918 3.37082 15.056 2 12 2C6.63069 2 2.24973 6.2317 2.01031 11.5419C2.02258 11.549 2.03519 11.5562 2.04815 11.5634C2.36741 11.7407 2.93405 11.941 4.00002 11.9892ZM6.07826 17.379C5.96395 17.2532 5.85359 17.1238 5.74737 16.9909C5.49797 16.6789 5.27145 16.3477 5.07033 16H7.47995C7.7713 17.1785 8.18876 18.2868 8.71427 19.2963C7.70749 18.8422 6.81157 18.1858 6.07826 17.379ZM12 4.50001C11 4.50001 9.96917 6.53232 9.54929 8.00001H14.4507C14.0308 6.53232 13 4.50001 12 4.50001ZM9.1328 14C9.04573 13.3528 9.00001 12.6845 9.00001 12C9.00001 11.3155 9.04573 10.6472 9.1328 10H14.8672C14.9543 10.6472 15 11.3155 15 12C15 12.6845 14.9543 13.3528 14.8672 14H9.1328Z" fill="#001A41"/>
</svg>
